<svg width="237" height="228" viewBox="0 0 237 228" fill="none" xmlns="http://www.w3.org/2000/svg">
<g opacity="0.5">
<path d="M118.502 55.1652C85.0543 55.1652 57.3406 81.2519 57.3406 113.746C57.3406 146.24 84.5765 172.327 118.502 172.327C152.427 172.327 179.663 145.782 179.663 113.746C179.663 81.7096 151.949 55.1652 118.502 55.1652ZM118.502 151.274C96.9999 151.274 79.3204 134.341 79.3204 113.746C79.3204 93.1511 96.9999 76.2177 118.502 76.2177C140.004 76.2177 157.683 93.1511 157.683 113.746C157.683 134.341 140.004 151.274 118.502 151.274Z" fill="#D1B0C2"/>
<path d="M182.05 67.0644C189.703 67.0644 195.907 61.1223 195.907 53.7923C195.907 46.4623 189.703 40.5202 182.05 40.5202C174.397 40.5202 168.193 46.4623 168.193 53.7923C168.193 61.1223 174.397 67.0644 182.05 67.0644Z" fill="#D1B0C2"/>
<path d="M217.887 19.4678C205.464 7.11096 187.784 0.703705 167.716 0.703705H69.2843C27.7137 0.703705 0 27.2481 0 67.0646V160.885C0 180.565 6.68952 197.498 20.0685 209.855C32.9698 221.754 50.1714 227.704 69.7621 227.704H167.238C187.784 227.704 204.986 221.296 217.409 209.855C230.31 197.956 237 181.022 237 161.343V67.0646C237 47.8428 230.31 31.367 217.887 19.4678ZM215.976 161.343C215.976 175.53 210.72 186.972 202.119 194.752C193.518 202.532 181.573 206.651 167.238 206.651H69.7621C55.4274 206.651 43.4819 202.532 34.881 194.752C26.2802 186.514 21.9798 175.073 21.9798 160.885V67.0646C21.9798 53.3347 26.2802 41.8932 34.881 33.6553C43.004 25.8751 55.4274 21.7561 69.7621 21.7561H168.194C182.528 21.7561 194.474 25.8751 203.075 34.113C211.198 42.3509 215.976 53.7924 215.976 67.0646V161.343Z" fill="#D1B0C2"/>
</g>
</svg>
